# xmcd
#
# Track frame offsets:
#	150
#	18606
#	37068
#	54376
#	67683
#	85385
#	105491
#	123346
#	142390
#	157243
#	173901
#	189926
#	203582
#	220682
#	238090
#	256965
#	275272
#	287445
#	305482
#	319160
#	331786
#
# Disc length: 4624 seconds
#
# Revision: 0
# Processed by: cddbd v1.5.2PL0 Copyright (c) Steve Scherf et al.
# Submitted via: dBpowerAMP V4.0
#
DISCID=2f120e15
DTITLE=Shania Twain - The Best Of
DYEAR=1900
DGENRE=Country
TTITLE0=Forever And For Always
TTITLE1=I'm Gonna Getcha Good
TTITLE2=God Bless The Child
TTITLE3=Come On Over
TTITLE4=Man I Feel Like A Woman
TTITLE5=That Don't Impress Me Much
TTITLE6=From This Momens On
TTITLE7=Home Ain't Where His Heart is
TTITLE8=You're Still The One
TTITLE9=Don't Be Stupid (You Know I Love You)
TTITLE10=Love Gets Me Every Time
TTITLE11=No One Needs To know
TTITLE12=You Win my Love
TTITLE13=I'm Outta Here
TTITLE14=Any Man Ofmine
TTITLE15=Whose Bed have Your Boots Been under
TTITLE16=Love
TTITLE17=The Woman In Me
TTITLE18=What Made You Say That
TTITLE19=You lady A Whole Lot Of Love On Me
TTITLE20=You're Got A Way
EXTD=
EXTT0=
EXTT1=
EXTT2=
EXTT3=
EXTT4=
EXTT5=
EXTT6=
EXTT7=
EXTT8=
EXTT9=
EXTT10=
EXTT11=
EXTT12=
EXTT13=
EXTT14=
EXTT15=
EXTT16=
EXTT17=
EXTT18=
EXTT19=
EXTT20=
PLAYORDER=
